<?xml version="1.0" encoding="UTF-8" standalone="no"?>
<!DOCTYPE svg PUBLIC "-//W3C//DTD SVG 1.1//EN"
 "http://www.w3.org/Graphics/SVG/1.1/DTD/svg11.dtd">
<!-- Generated by graphviz version 14.0.2 (20251019.1705)
 -->
<!-- Pages: 1 -->
<svg width="864pt" height="778pt"
 viewBox="0.00 0.00 864.00 778.00" xmlns="http://www.w3.org/2000/svg" xmlns:xlink="http://www.w3.org/1999/xlink">
<g id="graph0" class="graph" transform="scale(0.913319 0.913319) rotate(0) translate(4 847.75)">
<polygon fill="white" stroke="none" points="-4,4 -4,-847.75 942,-847.75 942,4 -4,4"/>
<!-- 2403946663952 -->
<g id="node1" class="node">
<title>2403946663952</title>
<polygon fill="#caff70" stroke="black" points="539,-32.75 485,-32.75 485,0 539,0 539,-32.75"/>
<text xml:space="preserve" text-anchor="middle" x="512" y="-7.25" font-family="monospace" font-size="10.00"> ()</text>
</g>
<!-- 2403946655136 -->
<g id="node2" class="node">
<title>2403946655136</title>
<polygon fill="lightgrey" stroke="black" points="556,-115 468,-115 468,-68.75 556,-68.75 556,-115"/>
<text xml:space="preserve" text-anchor="middle" x="512" y="-101.5" font-family="monospace" font-size="10.00">AddBackward0</text>
<text xml:space="preserve" text-anchor="middle" x="512" y="-88.75" font-family="monospace" font-size="10.00">&#45;&#45;&#45;&#45;&#45;&#45;&#45;&#45;&#45;&#45;&#45;&#45;</text>
<text xml:space="preserve" text-anchor="middle" x="512" y="-76" font-family="monospace" font-size="10.00">alpha: 1</text>
</g>
<!-- 2403946655136&#45;&gt;2403946663952 -->
<g id="edge29" class="edge">
<title>2403946655136&#45;&gt;2403946663952</title>
<path fill="none" stroke="black" d="M512,-68.42C512,-60.8 512,-52.2 512,-44.26"/>
<polygon fill="black" stroke="black" points="515.5,-44.45 512,-34.45 508.5,-44.45 515.5,-44.45"/>
</g>
<!-- 2403946654752 -->
<g id="node3" class="node">
<title>2403946654752</title>
<polygon fill="lightgrey" stroke="black" points="365,-210 211,-210 211,-151 365,-151 365,-210"/>
<text xml:space="preserve" text-anchor="middle" x="288" y="-196.5" font-family="monospace" font-size="10.00">MeanBackward0</text>
<text xml:space="preserve" text-anchor="middle" x="288" y="-183.75" font-family="monospace" font-size="10.00">&#45;&#45;&#45;&#45;&#45;&#45;&#45;&#45;&#45;&#45;&#45;&#45;&#45;&#45;&#45;&#45;&#45;&#45;&#45;&#45;&#45;&#45;&#45;</text>
<text xml:space="preserve" text-anchor="middle" x="288" y="-171" font-family="monospace" font-size="10.00">self_sym_numel: &#160;&#160;&#160;&#160;&#160;11</text>
<text xml:space="preserve" text-anchor="middle" x="288" y="-158.25" font-family="monospace" font-size="10.00">self_sym_sizes: (1, 11)</text>
</g>
<!-- 2403946654752&#45;&gt;2403946655136 -->
<g id="edge1" class="edge">
<title>2403946654752&#45;&gt;2403946655136</title>
<path fill="none" stroke="black" d="M362.9,-150.53C393.69,-138.63 428.69,-125.09 457.04,-114.13"/>
<polygon fill="black" stroke="black" points="458.09,-117.48 466.15,-110.61 455.56,-110.95 458.09,-117.48"/>
</g>
<!-- 2403946655040 -->
<g id="node4" class="node">
<title>2403946655040</title>
<polygon fill="lightgrey" stroke="black" points="392,-381.5 184,-381.5 184,-246 392,-246 392,-381.5"/>
<text xml:space="preserve" text-anchor="middle" x="288" y="-368" font-family="monospace" font-size="10.00">AddmmBackward0</text>
<text xml:space="preserve" text-anchor="middle" x="288" y="-355.25" font-family="monospace" font-size="10.00">&#45;&#45;&#45;&#45;&#45;&#45;&#45;&#45;&#45;&#45;&#45;&#45;&#45;&#45;&#45;&#45;&#45;&#45;&#45;&#45;&#45;&#45;&#45;&#45;&#45;&#45;&#45;&#45;&#45;&#45;&#45;&#45;</text>
<text xml:space="preserve" text-anchor="middle" x="288" y="-342.5" font-family="monospace" font-size="10.00">alpha &#160;&#160;&#160;&#160;&#160;&#160;&#160;&#160;&#160;&#160;: &#160;&#160;&#160;&#160;&#160;&#160;&#160;&#160;&#160;&#160;&#160;&#160;&#160;1</text>
<text xml:space="preserve" text-anchor="middle" x="288" y="-329.75" font-family="monospace" font-size="10.00">beta &#160;&#160;&#160;&#160;&#160;&#160;&#160;&#160;&#160;&#160;&#160;: &#160;&#160;&#160;&#160;&#160;&#160;&#160;&#160;&#160;&#160;&#160;&#160;&#160;1</text>
<text xml:space="preserve" text-anchor="middle" x="288" y="-317" font-family="monospace" font-size="10.00">mat1 &#160;&#160;&#160;&#160;&#160;&#160;&#160;&#160;&#160;&#160;&#160;: [saved tensor]</text>
<text xml:space="preserve" text-anchor="middle" x="288" y="-304.25" font-family="monospace" font-size="10.00">mat1_sym_sizes &#160;: &#160;&#160;&#160;&#160;&#160;&#160;(1, 512)</text>
<text xml:space="preserve" text-anchor="middle" x="288" y="-291.5" font-family="monospace" font-size="10.00">mat1_sym_strides: &#160;&#160;&#160;&#160;&#160;&#160;(512, 1)</text>
<text xml:space="preserve" text-anchor="middle" x="288" y="-278.75" font-family="monospace" font-size="10.00">mat2 &#160;&#160;&#160;&#160;&#160;&#160;&#160;&#160;&#160;&#160;&#160;: [saved tensor]</text>
<text xml:space="preserve" text-anchor="middle" x="288" y="-266" font-family="monospace" font-size="10.00">mat2_sym_sizes &#160;: &#160;&#160;&#160;&#160;&#160;(512, 11)</text>
<text xml:space="preserve" text-anchor="middle" x="288" y="-253.25" font-family="monospace" font-size="10.00">mat2_sym_strides: &#160;&#160;&#160;&#160;&#160;&#160;(1, 512)</text>
</g>
<!-- 2403946655040&#45;&gt;2403946654752 -->
<g id="edge2" class="edge">
<title>2403946655040&#45;&gt;2403946654752</title>
<path fill="none" stroke="black" d="M288,-245.59C288,-237.47 288,-229.39 288,-221.84"/>
<polygon fill="black" stroke="black" points="291.5,-221.99 288,-211.99 284.5,-221.99 291.5,-221.99"/>
</g>
<!-- 2403946664336 -->
<g id="node5" class="node">
<title>2403946664336</title>
<polygon fill="orange" stroke="black" points="547,-197.25 477,-197.25 477,-163.75 547,-163.75 547,-197.25"/>
<text xml:space="preserve" text-anchor="middle" x="512" y="-183.75" font-family="monospace" font-size="10.00">mat1</text>
<text xml:space="preserve" text-anchor="middle" x="512" y="-171" font-family="monospace" font-size="10.00"> (1, 512)</text>
</g>
<!-- 2403946655040&#45;&gt;2403946664336 -->
<g id="edge3" class="edge">
<title>2403946655040&#45;&gt;2403946664336</title>
<path fill="none" stroke="black" d="M392.33,-254.51C417.28,-240.22 443.72,-224.78 468,-210 474.38,-206.12 481.18,-201.8 487.49,-197.72"/>
</g>
<!-- 2403946726032 -->
<g id="node6" class="node">
<title>2403946726032</title>
<polygon fill="orange" stroke="black" points="459,-197.25 383,-197.25 383,-163.75 459,-163.75 459,-197.25"/>
<text xml:space="preserve" text-anchor="middle" x="421" y="-183.75" font-family="monospace" font-size="10.00">mat2</text>
<text xml:space="preserve" text-anchor="middle" x="421" y="-171" font-family="monospace" font-size="10.00"> (512, 11)</text>
</g>
<!-- 2403946655040&#45;&gt;2403946726032 -->
<g id="edge4" class="edge">
<title>2403946655040&#45;&gt;2403946726032</title>
<path fill="none" stroke="black" d="M356.06,-245.59C374.21,-227.68 392.21,-209.92 404.63,-197.65"/>
</g>
<!-- 2403946654704 -->
<g id="node7" class="node">
<title>2403946654704</title>
<polygon fill="lightgrey" stroke="black" points="167,-451 67,-451 67,-430.25 167,-430.25 167,-451"/>
<text xml:space="preserve" text-anchor="middle" x="117" y="-437.5" font-family="monospace" font-size="10.00">AccumulateGrad</text>
</g>
<!-- 2403946654704&#45;&gt;2403946655040 -->
<g id="edge5" class="edge">
<title>2403946654704&#45;&gt;2403946655040</title>
<path fill="none" stroke="black" d="M130.42,-429.83C143.42,-420.33 164.41,-405 186.9,-388.58"/>
<polygon fill="black" stroke="black" points="188.69,-391.61 194.7,-382.88 184.56,-385.95 188.69,-391.61"/>
</g>
<!-- 2403347887312 -->
<g id="node8" class="node">
<title>2403347887312</title>
<polygon fill="lightblue" stroke="black" points="172,-584.25 0,-584.25 0,-550.75 172,-550.75 172,-584.25"/>
<text xml:space="preserve" text-anchor="middle" x="86" y="-570.75" font-family="monospace" font-size="10.00">aspect_detection_head.bias</text>
<text xml:space="preserve" text-anchor="middle" x="86" y="-558" font-family="monospace" font-size="10.00"> (11)</text>
</g>
<!-- 2403347887312&#45;&gt;2403946654704 -->
<g id="edge6" class="edge">
<title>2403347887312&#45;&gt;2403946654704</title>
<path fill="none" stroke="black" d="M89.99,-550.43C95.58,-527.89 105.77,-486.88 111.9,-462.15"/>
<polygon fill="black" stroke="black" points="115.25,-463.2 114.26,-452.65 108.46,-461.52 115.25,-463.2"/>
</g>
<!-- 2403946654656 -->
<g id="node9" class="node">
<title>2403946654656</title>
<polygon fill="lightgrey" stroke="black" points="550,-463.75 402,-463.75 402,-417.5 550,-417.5 550,-463.75"/>
<text xml:space="preserve" text-anchor="middle" x="476" y="-450.25" font-family="monospace" font-size="10.00">ReluBackward0</text>
<text xml:space="preserve" text-anchor="middle" x="476" y="-437.5" font-family="monospace" font-size="10.00">&#45;&#45;&#45;&#45;&#45;&#45;&#45;&#45;&#45;&#45;&#45;&#45;&#45;&#45;&#45;&#45;&#45;&#45;&#45;&#45;&#45;&#45;</text>
<text xml:space="preserve" text-anchor="middle" x="476" y="-424.75" font-family="monospace" font-size="10.00">result: [saved tensor]</text>
</g>
<!-- 2403946654656&#45;&gt;2403946655040 -->
<g id="edge7" class="edge">
<title>2403946654656&#45;&gt;2403946655040</title>
<path fill="none" stroke="black" d="M441.95,-417.01C429.31,-408.61 414.17,-398.56 398.4,-388.08"/>
<polygon fill="black" stroke="black" points="400.58,-385.33 390.32,-382.71 396.71,-391.16 400.58,-385.33"/>
</g>
<!-- 2403347888944 -->
<g id="node10" class="node">
<title>2403347888944</title>
<polygon fill="orange" stroke="black" points="511,-330.5 441,-330.5 441,-297 511,-297 511,-330.5"/>
<text xml:space="preserve" text-anchor="middle" x="476" y="-317" font-family="monospace" font-size="10.00">result</text>
<text xml:space="preserve" text-anchor="middle" x="476" y="-304.25" font-family="monospace" font-size="10.00"> (1, 512)</text>
</g>
<!-- 2403946654656&#45;&gt;2403347888944 -->
<g id="edge8" class="edge">
<title>2403946654656&#45;&gt;2403347888944</title>
<path fill="none" stroke="black" d="M476,-417.01C476,-392.13 476,-352.77 476,-330.85"/>
</g>
<!-- 2403946654128 -->
<g id="node22" class="node">
<title>2403946654128</title>
<polygon fill="lightgrey" stroke="black" points="737,-381.5 529,-381.5 529,-246 737,-246 737,-381.5"/>
<text xml:space="preserve" text-anchor="middle" x="633" y="-368" font-family="monospace" font-size="10.00">AddmmBackward0</text>
<text xml:space="preserve" text-anchor="middle" x="633" y="-355.25" font-family="monospace" font-size="10.00">&#45;&#45;&#45;&#45;&#45;&#45;&#45;&#45;&#45;&#45;&#45;&#45;&#45;&#45;&#45;&#45;&#45;&#45;&#45;&#45;&#45;&#45;&#45;&#45;&#45;&#45;&#45;&#45;&#45;&#45;&#45;&#45;</text>
<text xml:space="preserve" text-anchor="middle" x="633" y="-342.5" font-family="monospace" font-size="10.00">alpha &#160;&#160;&#160;&#160;&#160;&#160;&#160;&#160;&#160;&#160;: &#160;&#160;&#160;&#160;&#160;&#160;&#160;&#160;&#160;&#160;&#160;&#160;&#160;1</text>
<text xml:space="preserve" text-anchor="middle" x="633" y="-329.75" font-family="monospace" font-size="10.00">beta &#160;&#160;&#160;&#160;&#160;&#160;&#160;&#160;&#160;&#160;&#160;: &#160;&#160;&#160;&#160;&#160;&#160;&#160;&#160;&#160;&#160;&#160;&#160;&#160;1</text>
<text xml:space="preserve" text-anchor="middle" x="633" y="-317" font-family="monospace" font-size="10.00">mat1 &#160;&#160;&#160;&#160;&#160;&#160;&#160;&#160;&#160;&#160;&#160;: [saved tensor]</text>
<text xml:space="preserve" text-anchor="middle" x="633" y="-304.25" font-family="monospace" font-size="10.00">mat1_sym_sizes &#160;: &#160;&#160;&#160;&#160;&#160;&#160;(1, 512)</text>
<text xml:space="preserve" text-anchor="middle" x="633" y="-291.5" font-family="monospace" font-size="10.00">mat1_sym_strides: &#160;&#160;&#160;&#160;&#160;&#160;(512, 1)</text>
<text xml:space="preserve" text-anchor="middle" x="633" y="-278.75" font-family="monospace" font-size="10.00">mat2 &#160;&#160;&#160;&#160;&#160;&#160;&#160;&#160;&#160;&#160;&#160;: [saved tensor]</text>
<text xml:space="preserve" text-anchor="middle" x="633" y="-266" font-family="monospace" font-size="10.00">mat2_sym_sizes &#160;: &#160;&#160;&#160;&#160;&#160;(512, 33)</text>
<text xml:space="preserve" text-anchor="middle" x="633" y="-253.25" font-family="monospace" font-size="10.00">mat2_sym_strides: &#160;&#160;&#160;&#160;&#160;&#160;(1, 512)</text>
</g>
<!-- 2403946654656&#45;&gt;2403946654128 -->
<g id="edge25" class="edge">
<title>2403946654656&#45;&gt;2403946654128</title>
<path fill="none" stroke="black" d="M504.43,-417.01C514.7,-408.84 526.93,-399.12 539.7,-388.96"/>
<polygon fill="black" stroke="black" points="541.78,-391.78 547.42,-382.82 537.42,-386.3 541.78,-391.78"/>
</g>
<!-- 2403946654224 -->
<g id="node11" class="node">
<title>2403946654224</title>
<polygon fill="lightgrey" stroke="black" points="516,-635.25 308,-635.25 308,-499.75 516,-499.75 516,-635.25"/>
<text xml:space="preserve" text-anchor="middle" x="412" y="-621.75" font-family="monospace" font-size="10.00">AddmmBackward0</text>
<text xml:space="preserve" text-anchor="middle" x="412" y="-609" font-family="monospace" font-size="10.00">&#45;&#45;&#45;&#45;&#45;&#45;&#45;&#45;&#45;&#45;&#45;&#45;&#45;&#45;&#45;&#45;&#45;&#45;&#45;&#45;&#45;&#45;&#45;&#45;&#45;&#45;&#45;&#45;&#45;&#45;&#45;&#45;</text>
<text xml:space="preserve" text-anchor="middle" x="412" y="-596.25" font-family="monospace" font-size="10.00">alpha &#160;&#160;&#160;&#160;&#160;&#160;&#160;&#160;&#160;&#160;: &#160;&#160;&#160;&#160;&#160;&#160;&#160;&#160;&#160;&#160;&#160;&#160;&#160;1</text>
<text xml:space="preserve" text-anchor="middle" x="412" y="-583.5" font-family="monospace" font-size="10.00">beta &#160;&#160;&#160;&#160;&#160;&#160;&#160;&#160;&#160;&#160;&#160;: &#160;&#160;&#160;&#160;&#160;&#160;&#160;&#160;&#160;&#160;&#160;&#160;&#160;1</text>
<text xml:space="preserve" text-anchor="middle" x="412" y="-570.75" font-family="monospace" font-size="10.00">mat1 &#160;&#160;&#160;&#160;&#160;&#160;&#160;&#160;&#160;&#160;&#160;: [saved tensor]</text>
<text xml:space="preserve" text-anchor="middle" x="412" y="-558" font-family="monospace" font-size="10.00">mat1_sym_sizes &#160;: &#160;&#160;&#160;&#160;&#160;&#160;(1, 768)</text>
<text xml:space="preserve" text-anchor="middle" x="412" y="-545.25" font-family="monospace" font-size="10.00">mat1_sym_strides: &#160;&#160;&#160;&#160;&#160;&#160;&#160;&#160;&#160;&#160;&#160;&#160;()</text>
<text xml:space="preserve" text-anchor="middle" x="412" y="-532.5" font-family="monospace" font-size="10.00">mat2 &#160;&#160;&#160;&#160;&#160;&#160;&#160;&#160;&#160;&#160;&#160;: &#160;&#160;&#160;&#160;&#160;&#160;&#160;&#160;&#160;&#160;None</text>
<text xml:space="preserve" text-anchor="middle" x="412" y="-519.75" font-family="monospace" font-size="10.00">mat2_sym_sizes &#160;: &#160;&#160;&#160;&#160;(768, 512)</text>
<text xml:space="preserve" text-anchor="middle" x="412" y="-507" font-family="monospace" font-size="10.00">mat2_sym_strides: &#160;&#160;&#160;&#160;&#160;&#160;(1, 768)</text>
</g>
<!-- 2403946654224&#45;&gt;2403946654656 -->
<g id="edge9" class="edge">
<title>2403946654224&#45;&gt;2403946654656</title>
<path fill="none" stroke="black" d="M446.44,-499.31C450.91,-490.58 455.32,-481.97 459.32,-474.18"/>
<polygon fill="black" stroke="black" points="462.33,-475.96 463.78,-465.47 456.11,-472.77 462.33,-475.96"/>
</g>
<!-- 2403348085360 -->
<g id="node12" class="node">
<title>2403348085360</title>
<polygon fill="orange" stroke="black" points="384,-457.38 314,-457.38 314,-423.88 384,-423.88 384,-457.38"/>
<text xml:space="preserve" text-anchor="middle" x="349" y="-443.88" font-family="monospace" font-size="10.00">mat1</text>
<text xml:space="preserve" text-anchor="middle" x="349" y="-431.12" font-family="monospace" font-size="10.00"> (1, 768)</text>
</g>
<!-- 2403946654224&#45;&gt;2403348085360 -->
<g id="edge10" class="edge">
<title>2403946654224&#45;&gt;2403348085360</title>
<path fill="none" stroke="black" d="M378.1,-499.31C370.18,-483.61 362.46,-468.31 356.97,-457.42"/>
</g>
<!-- 2403946654032 -->
<g id="node13" class="node">
<title>2403946654032</title>
<polygon fill="lightgrey" stroke="black" points="456,-698.38 356,-698.38 356,-677.62 456,-677.62 456,-698.38"/>
<text xml:space="preserve" text-anchor="middle" x="406" y="-684.88" font-family="monospace" font-size="10.00">AccumulateGrad</text>
</g>
<!-- 2403946654032&#45;&gt;2403946654224 -->
<g id="edge11" class="edge">
<title>2403946654032&#45;&gt;2403946654224</title>
<path fill="none" stroke="black" d="M406.49,-677.3C406.86,-669.94 407.42,-659.04 408.03,-646.95"/>
<polygon fill="black" stroke="black" points="411.52,-647.25 408.53,-637.08 404.53,-646.89 411.52,-647.25"/>
</g>
<!-- 2403347886640 -->
<g id="node14" class="node">
<title>2403347886640</title>
<polygon fill="lightblue" stroke="black" points="444,-774.25 368,-774.25 368,-740.75 444,-740.75 444,-774.25"/>
<text xml:space="preserve" text-anchor="middle" x="406" y="-760.75" font-family="monospace" font-size="10.00">dense.bias</text>
<text xml:space="preserve" text-anchor="middle" x="406" y="-748" font-family="monospace" font-size="10.00"> (512)</text>
</g>
<!-- 2403347886640&#45;&gt;2403946654032 -->
<g id="edge12" class="edge">
<title>2403347886640&#45;&gt;2403946654032</title>
<path fill="none" stroke="black" d="M406,-740.5C406,-731.4 406,-719.89 406,-710.07"/>
<polygon fill="black" stroke="black" points="409.5,-710.34 406,-700.34 402.5,-710.34 409.5,-710.34"/>
</g>
<!-- 2403946654080 -->
<g id="node15" class="node">
<title>2403946654080</title>
<polygon fill="lightgrey" stroke="black" points="550,-698.38 474,-698.38 474,-677.62 550,-677.62 550,-698.38"/>
<text xml:space="preserve" text-anchor="middle" x="512" y="-684.88" font-family="monospace" font-size="10.00">TBackward0</text>
</g>
<!-- 2403946654080&#45;&gt;2403946654224 -->
<g id="edge13" class="edge">
<title>2403946654080&#45;&gt;2403946654224</title>
<path fill="none" stroke="black" d="M503.82,-677.3C497.16,-669.41 487.08,-657.47 476,-644.34"/>
<polygon fill="black" stroke="black" points="478.7,-642.11 469.58,-636.73 473.35,-646.63 478.7,-642.11"/>
</g>
<!-- 2403946653984 -->
<g id="node16" class="node">
<title>2403946653984</title>
<polygon fill="lightgrey" stroke="black" points="562,-767.88 462,-767.88 462,-747.12 562,-747.12 562,-767.88"/>
<text xml:space="preserve" text-anchor="middle" x="512" y="-754.38" font-family="monospace" font-size="10.00">AccumulateGrad</text>
</g>
<!-- 2403946653984&#45;&gt;2403946654080 -->
<g id="edge14" class="edge">
<title>2403946653984&#45;&gt;2403946654080</title>
<path fill="none" stroke="black" d="M512,-746.83C512,-737.21 512,-722.13 512,-709.79"/>
<polygon fill="black" stroke="black" points="515.5,-710.17 512,-700.17 508.5,-710.17 515.5,-710.17"/>
</g>
<!-- 2403347888752 -->
<g id="node17" class="node">
<title>2403347888752</title>
<polygon fill="lightblue" stroke="black" points="556,-843.75 468,-843.75 468,-810.25 556,-810.25 556,-843.75"/>
<text xml:space="preserve" text-anchor="middle" x="512" y="-830.25" font-family="monospace" font-size="10.00">dense.weight</text>
<text xml:space="preserve" text-anchor="middle" x="512" y="-817.5" font-family="monospace" font-size="10.00"> (512, 768)</text>
</g>
<!-- 2403347888752&#45;&gt;2403946653984 -->
<g id="edge15" class="edge">
<title>2403347888752&#45;&gt;2403946653984</title>
<path fill="none" stroke="black" d="M512,-810C512,-800.9 512,-789.39 512,-779.57"/>
<polygon fill="black" stroke="black" points="515.5,-779.84 512,-769.84 508.5,-779.84 515.5,-779.84"/>
</g>
<!-- 2403946654464 -->
<g id="node18" class="node">
<title>2403946654464</title>
<polygon fill="lightgrey" stroke="black" points="292,-451 216,-451 216,-430.25 292,-430.25 292,-451"/>
<text xml:space="preserve" text-anchor="middle" x="254" y="-437.5" font-family="monospace" font-size="10.00">TBackward0</text>
</g>
<!-- 2403946654464&#45;&gt;2403946655040 -->
<g id="edge16" class="edge">
<title>2403946654464&#45;&gt;2403946655040</title>
<path fill="none" stroke="black" d="M256.67,-429.83C259.02,-421.17 262.7,-407.67 266.72,-392.91"/>
<polygon fill="black" stroke="black" points="270.04,-394.02 269.29,-383.45 263.29,-392.18 270.04,-394.02"/>
</g>
<!-- 2403946653936 -->
<g id="node19" class="node">
<title>2403946653936</title>
<polygon fill="lightgrey" stroke="black" points="290,-577.88 190,-577.88 190,-557.12 290,-557.12 290,-577.88"/>
<text xml:space="preserve" text-anchor="middle" x="240" y="-564.38" font-family="monospace" font-size="10.00">AccumulateGrad</text>
</g>
<!-- 2403946653936&#45;&gt;2403946654464 -->
<g id="edge17" class="edge">
<title>2403946653936&#45;&gt;2403946654464</title>
<path fill="none" stroke="black" d="M241.1,-556.7C243.36,-536.55 248.57,-490.06 251.63,-462.74"/>
<polygon fill="black" stroke="black" points="255.1,-463.21 252.74,-452.88 248.15,-462.43 255.1,-463.21"/>
</g>
<!-- 2403347887408 -->
<g id="node20" class="node">
<title>2403347887408</title>
<polygon fill="lightblue" stroke="black" points="332,-704.75 148,-704.75 148,-671.25 332,-671.25 332,-704.75"/>
<text xml:space="preserve" text-anchor="middle" x="240" y="-691.25" font-family="monospace" font-size="10.00">aspect_detection_head.weight</text>
<text xml:space="preserve" text-anchor="middle" x="240" y="-678.5" font-family="monospace" font-size="10.00"> (11, 512)</text>
</g>
<!-- 2403347887408&#45;&gt;2403946653936 -->
<g id="edge18" class="edge">
<title>2403347887408&#45;&gt;2403946653936</title>
<path fill="none" stroke="black" d="M240,-671.02C240,-650.02 240,-613.07 240,-589.73"/>
<polygon fill="black" stroke="black" points="243.5,-589.87 240,-579.87 236.5,-589.87 243.5,-589.87"/>
</g>
<!-- 2403946654512 -->
<g id="node21" class="node">
<title>2403946654512</title>
<polygon fill="lightgrey" stroke="black" points="813,-210 659,-210 659,-151 813,-151 813,-210"/>
<text xml:space="preserve" text-anchor="middle" x="736" y="-196.5" font-family="monospace" font-size="10.00">MeanBackward0</text>
<text xml:space="preserve" text-anchor="middle" x="736" y="-183.75" font-family="monospace" font-size="10.00">&#45;&#45;&#45;&#45;&#45;&#45;&#45;&#45;&#45;&#45;&#45;&#45;&#45;&#45;&#45;&#45;&#45;&#45;&#45;&#45;&#45;&#45;&#45;</text>
<text xml:space="preserve" text-anchor="middle" x="736" y="-171" font-family="monospace" font-size="10.00">self_sym_numel: &#160;&#160;&#160;&#160;&#160;33</text>
<text xml:space="preserve" text-anchor="middle" x="736" y="-158.25" font-family="monospace" font-size="10.00">self_sym_sizes: (1, 33)</text>
</g>
<!-- 2403946654512&#45;&gt;2403946655136 -->
<g id="edge19" class="edge">
<title>2403946654512&#45;&gt;2403946655136</title>
<path fill="none" stroke="black" d="M661.1,-150.53C630.31,-138.63 595.31,-125.09 566.96,-114.13"/>
<polygon fill="black" stroke="black" points="568.44,-110.95 557.85,-110.61 565.91,-117.48 568.44,-110.95"/>
</g>
<!-- 2403946654128&#45;&gt;2403946664336 -->
<g id="edge21" class="edge">
<title>2403946654128&#45;&gt;2403946664336</title>
<path fill="none" stroke="black" d="M571.08,-245.59C554.57,-227.68 538.2,-209.92 526.89,-197.65"/>
</g>
<!-- 2403946654128&#45;&gt;2403946654512 -->
<g id="edge20" class="edge">
<title>2403946654128&#45;&gt;2403946654512</title>
<path fill="none" stroke="black" d="M685.71,-245.59C692.76,-236.61 699.77,-227.66 706.23,-219.43"/>
<polygon fill="black" stroke="black" points="708.91,-221.69 712.33,-211.67 703.4,-217.37 708.91,-221.69"/>
</g>
<!-- 2403946728432 -->
<g id="node23" class="node">
<title>2403946728432</title>
<polygon fill="orange" stroke="black" points="641,-197.25 565,-197.25 565,-163.75 641,-163.75 641,-197.25"/>
<text xml:space="preserve" text-anchor="middle" x="603" y="-183.75" font-family="monospace" font-size="10.00">mat2</text>
<text xml:space="preserve" text-anchor="middle" x="603" y="-171" font-family="monospace" font-size="10.00"> (512, 33)</text>
</g>
<!-- 2403946654128&#45;&gt;2403946728432 -->
<g id="edge22" class="edge">
<title>2403946654128&#45;&gt;2403946728432</title>
<path fill="none" stroke="black" d="M617.65,-245.59C613.55,-227.68 609.5,-209.92 606.69,-197.65"/>
</g>
<!-- 2403946653696 -->
<g id="node24" class="node">
<title>2403946653696</title>
<polygon fill="lightgrey" stroke="black" points="690,-451 590,-451 590,-430.25 690,-430.25 690,-451"/>
<text xml:space="preserve" text-anchor="middle" x="640" y="-437.5" font-family="monospace" font-size="10.00">AccumulateGrad</text>
</g>
<!-- 2403946653696&#45;&gt;2403946654128 -->
<g id="edge23" class="edge">
<title>2403946653696&#45;&gt;2403946654128</title>
<path fill="none" stroke="black" d="M639.45,-429.83C638.97,-421.26 638.22,-407.93 637.41,-393.34"/>
<polygon fill="black" stroke="black" points="640.91,-393.29 636.85,-383.5 633.92,-393.68 640.91,-393.29"/>
</g>
<!-- 2403352313680 -->
<g id="node25" class="node">
<title>2403352313680</title>
<polygon fill="lightblue" stroke="black" points="754,-584.25 534,-584.25 534,-550.75 754,-550.75 754,-584.25"/>
<text xml:space="preserve" text-anchor="middle" x="644" y="-570.75" font-family="monospace" font-size="10.00">sentiment_classification_head.bias</text>
<text xml:space="preserve" text-anchor="middle" x="644" y="-558" font-family="monospace" font-size="10.00"> (33)</text>
</g>
<!-- 2403352313680&#45;&gt;2403946653696 -->
<g id="edge24" class="edge">
<title>2403352313680&#45;&gt;2403946653696</title>
<path fill="none" stroke="black" d="M643.49,-550.43C642.77,-527.99 641.46,-487.25 640.67,-462.49"/>
<polygon fill="black" stroke="black" points="644.17,-462.58 640.35,-452.7 637.18,-462.8 644.17,-462.58"/>
</g>
<!-- 2403946653744 -->
<g id="node26" class="node">
<title>2403946653744</title>
<polygon fill="lightgrey" stroke="black" points="822,-451 746,-451 746,-430.25 822,-430.25 822,-451"/>
<text xml:space="preserve" text-anchor="middle" x="784" y="-437.5" font-family="monospace" font-size="10.00">TBackward0</text>
</g>
<!-- 2403946653744&#45;&gt;2403946654128 -->
<g id="edge26" class="edge">
<title>2403946653744&#45;&gt;2403946654128</title>
<path fill="none" stroke="black" d="M772.15,-429.83C760.83,-420.46 742.62,-405.41 723.06,-389.23"/>
<polygon fill="black" stroke="black" points="725.41,-386.63 715.47,-382.96 720.95,-392.03 725.41,-386.63"/>
</g>
<!-- 2403946654176 -->
<g id="node27" class="node">
<title>2403946654176</title>
<polygon fill="lightgrey" stroke="black" points="872,-577.88 772,-577.88 772,-557.12 872,-557.12 872,-577.88"/>
<text xml:space="preserve" text-anchor="middle" x="822" y="-564.38" font-family="monospace" font-size="10.00">AccumulateGrad</text>
</g>
<!-- 2403946654176&#45;&gt;2403946653744 -->
<g id="edge27" class="edge">
<title>2403946654176&#45;&gt;2403946653744</title>
<path fill="none" stroke="black" d="M819.02,-556.7C812.86,-536.46 798.61,-489.64 790.31,-462.37"/>
<polygon fill="black" stroke="black" points="793.67,-461.37 787.41,-452.83 786.97,-463.41 793.67,-461.37"/>
</g>
<!-- 2403352313776 -->
<g id="node28" class="node">
<title>2403352313776</title>
<polygon fill="lightblue" stroke="black" points="938,-704.75 706,-704.75 706,-671.25 938,-671.25 938,-704.75"/>
<text xml:space="preserve" text-anchor="middle" x="822" y="-691.25" font-family="monospace" font-size="10.00">sentiment_classification_head.weight</text>
<text xml:space="preserve" text-anchor="middle" x="822" y="-678.5" font-family="monospace" font-size="10.00"> (33, 512)</text>
</g>
<!-- 2403352313776&#45;&gt;2403946654176 -->
<g id="edge28" class="edge">
<title>2403352313776&#45;&gt;2403946654176</title>
<path fill="none" stroke="black" d="M822,-671.02C822,-650.02 822,-613.07 822,-589.73"/>
<polygon fill="black" stroke="black" points="825.5,-589.87 822,-579.87 818.5,-589.87 825.5,-589.87"/>
</g>
</g>
</svg>
